<?xml version="1.0" encoding="UTF-8" standalone="no"?>
<svg width="140px" height="140px" viewBox="0 0 140 140" version="1.1" xmlns="http://www.w3.org/2000/svg" xmlns:xlink="http://www.w3.org/1999/xlink" xmlns:sketch="http://www.bohemiancoding.com/sketch/ns">
    <!-- Generator: Sketch 3.3.2 (12043) - http://www.bohemiancoding.com/sketch -->
    <title>noun_5847_cc</title>
    <desc>Created with Sketch.</desc>
    <defs></defs>
    <g id="Page-1" stroke="none" stroke-width="1" fill="none" fill-rule="evenodd" sketch:type="MSPage">
        <g id="noun_5847_cc" sketch:type="MSLayerGroup" transform="translate(0.000000, -1.000000)" fill="#000000">
            <g sketch:type="MSShapeGroup">
                <path d="M92.6402703,29.6999009 L92.6402703,29.7019693 L105.336757,43.584951 L105.338649,43.5828827 L122.954054,62.8457267 L139.341622,44.9293995 L109.024054,11.7856421 L79.8,1.33617494 L73.2483784,8.5010511 L92.6402703,29.6999009 L92.6402703,29.6999009 Z" id="Shape"></path>
                <path d="M89.2959626,33.3595656 L101.992612,47.240657 L82.4158796,68.6436591 L69.7192302,54.7625676 L89.2959626,33.3595656 L89.2959626,33.3595656 Z" id="Rectangle-path"></path>
                <path d="M23.5126659,133.047371 L10.813341,119.163355 L48.7026256,77.7394631 L61.4019505,91.6234797 L23.5126659,133.047371 L23.5126659,133.047371 Z" id="Rectangle-path"></path>
                <path d="M93.3232432,87.8814256 L48.3151351,38.6704748 L52.2313514,22.688085 L33.2556757,1.94221095 L18.6351351,6.22376223 L33.9613514,22.9817953 L30.9343243,35.3362426 L19.6340541,38.6456542 L4.30594595,21.8876211 L0.385945946,37.8741476 L19.3635135,58.6200217 L33.9859459,54.3364021 L78.9921622,103.547353 L75.0759459,119.533879 L94.0497297,140.277685 L108.672162,135.996134 L93.3440541,119.238101 L96.3748649,106.883653 L107.671351,103.570105 L122.999459,120.332275 L126.915676,104.345748 L107.945676,83.5998743 L93.3232432,87.8814256 L93.3232432,87.8814256 Z M45.2351351,54.6818219 C43.4075676,54.6818219 41.9243243,53.0622786 41.9243243,51.0621529 C41.9243243,49.0620273 43.4075676,47.442484 45.2351351,47.442484 C47.0627027,47.442484 48.5459459,49.0620273 48.5459459,51.0621529 C48.5459459,53.0622786 47.0608108,54.6818219 45.2351351,54.6818219 L45.2351351,54.6818219 Z M82.0986486,94.7980959 C80.2691892,94.7980959 78.7878378,93.1785526 78.7878378,91.1784269 C78.7878378,89.1783013 80.2691892,87.558758 82.0986486,87.558758 C83.9281081,87.558758 85.4094595,89.1783013 85.4094595,91.1784269 C85.4094595,93.1785526 83.9262162,94.7980959 82.0986486,94.7980959 L82.0986486,94.7980959 Z" id="Shape"></path>
            </g>
        </g>
    </g>
</svg>